<svg id="Layer_1" data-name="Layer 1" xmlns="http://www.w3.org/2000/svg" xmlns:xlink="http://www.w3.org/1999/xlink" width="750" height="277.44" viewBox="0 0 750 277.44"><defs><style>.cls-1{fill:#fff;}.cls-2{mask:url(#mask);}.cls-3{fill:#7344f6;}.cls-4{mask:url(#mask-2-2);}</style><mask id="mask" x="643.99" y="247.28" width="48.47" height="30.16" maskUnits="userSpaceOnUse"><g transform="translate(0 -236.58)"><g id="mask-2"><polygon id="path-1" class="cls-1" points="643.99 483.87 692.45 483.87 692.45 514.02 643.99 514.02 643.99 483.87"/></g></g></mask><mask id="mask-2-2" x="513.75" y="0" width="48.47" height="30.16" maskUnits="userSpaceOnUse"><g transform="translate(0 -236.58)"><g id="mask-4"><polygon id="path-3" class="cls-1" points="513.75 236.59 562.21 236.59 562.21 266.74 513.75 266.74 513.75 236.59"/></g></g></mask></defs><title>melio-logo-freelogovectors.net_</title><g id="Marketing-Website-Ver1"><g id="Desktop-Accounting-Software-Wizard-000-Copy-11"><g id="Group-19"><g id="Group-3"><g class="cls-2"><path id="Fill-1" class="cls-3" d="M660.65,511.14a11.39,11.39,0,0,0,15.14,0l13.92-12.74c5.86-5.37,1.71-14.53-6.57-14.53H653.3c-8.27,0-12.43,9.16-6.57,14.53Z" transform="translate(0 -236.58)"/></g></g><g id="Group-6"><g class="cls-4"><path id="Fill-4" class="cls-3" d="M545.55,239.46a11.41,11.41,0,0,0-15.14,0l-13.92,12.75c-5.86,5.36-1.71,14.53,6.57,14.53H552.9c8.27,0,12.43-9.17,6.57-14.53Z" transform="translate(0 -236.58)"/></g></g><path id="Fill-7" class="cls-3" d="M118.13,459.74A15.11,15.11,0,0,1,103,444.66V357.21a36.35,36.35,0,0,0-72.69,0v87.45a15.15,15.15,0,0,1-30.29,0V357.21c0-36.58,29.89-66.34,66.64-66.34a66.56,66.56,0,0,1,66.63,66.34v87.45a15.11,15.11,0,0,1-15.14,15.08" transform="translate(0 -236.58)"/><path id="Fill-9" class="cls-3" d="M221.11,459.74A15.11,15.11,0,0,1,206,444.66V357.21a36.35,36.35,0,0,0-72.69,0v87.45a15.15,15.15,0,0,1-30.29,0V357.21c0-36.58,29.9-66.34,66.64-66.34a66.56,66.56,0,0,1,66.63,66.34v87.45a15.11,15.11,0,0,1-15.14,15.08" transform="translate(0 -236.58)"/><path id="Fill-11" class="cls-3" d="M298.78,357.21H402.43c-6.16-21.9-25.94-36.19-52.24-36.19a54.61,54.61,0,0,0-51.41,36.19m51.41,102.53c-46.77,0-84.81-37.88-84.81-84.44s38-84.43,84.81-84.43c48.2,0,84.55,35,84.55,81.42a15.11,15.11,0,0,1-15.15,15.08H297a54.62,54.62,0,0,0,91.71,26.32,15.19,15.19,0,0,1,21.42,0,15,15,0,0,1,0,21.32,84.43,84.43,0,0,1-60,24.73" transform="translate(0 -236.58)"/><path id="Fill-13" class="cls-3" d="M477.4,459.74a15.11,15.11,0,0,1-15.14-15.08v-193a15.15,15.15,0,0,1,30.29,0v193a15.11,15.11,0,0,1-15.15,15.08" transform="translate(0 -236.58)"/><path id="Fill-15" class="cls-3" d="M538,459.74a15.11,15.11,0,0,1-15.15-15.08V306a15.15,15.15,0,0,1,30.29,0V444.66A15.11,15.11,0,0,1,538,459.74" transform="translate(0 -236.58)"/><path id="Fill-17" class="cls-3" d="M665.19,321a54.28,54.28,0,1,0,54.52,54.28A54.46,54.46,0,0,0,665.19,321m0,138.72c-46.76,0-84.81-37.88-84.81-84.44s38-84.43,84.81-84.43S750,328.74,750,375.3s-38,84.44-84.81,84.44" transform="translate(0 -236.58)"/></g></g></g></svg>